<svg width="302" height="425" viewBox="0 0 302 425" fill="none" xmlns="http://www.w3.org/2000/svg">
<line y1="-0.360702" x2="279.997" y2="-0.360702" transform="translate(11 1)" stroke="#D1C2A6" stroke-width="0.721405"/>
<line y1="-0.360702" x2="16.4544" y2="-0.360702" transform="translate(0 12.8955)" stroke="#D1C2A6" stroke-width="0.721405"/>
<line y1="-0.360702" x2="5.67395" y2="-0.360702" transform="translate(10.7812 17.9937)" stroke="#D1C2A6" stroke-width="0.721405"/>
<line y1="-0.360702" x2="5.67395" y2="-0.360702" transform="translate(2.26953 9.49658)" stroke="#D1C2A6" stroke-width="0.721405"/>
<line y1="-0.360702" x2="5.66452" y2="-0.360702" transform="translate(16.4551 12.3296) rotate(90)" stroke="#D1C2A6" stroke-width="0.721405"/>
<line y1="-0.360702" x2="16.9934" y2="-0.360702" transform="translate(10.7793 1.00049) rotate(90.1222)" stroke="#D1C2A6" stroke-width="0.721405"/>
<line y1="-0.360702" x2="5.66452" y2="-0.360702" transform="translate(7.37695 3.26611) rotate(90)" stroke="#D1C2A6" stroke-width="0.721405"/>
<line y1="-0.360702" x2="16.4544" y2="-0.360702" transform="translate(301.455 12.895) scale(-1 1)" stroke="#D1C2A6" stroke-width="0.721405"/>
<line y1="-0.360702" x2="5.67395" y2="-0.360702" transform="translate(290.674 17.9937) scale(-1 1)" stroke="#D1C2A6" stroke-width="0.721405"/>
<line y1="-0.360702" x2="5.67395" y2="-0.360702" transform="translate(299.186 9.49658) scale(-1 1)" stroke="#D1C2A6" stroke-width="0.721405"/>
<line y1="-0.360702" x2="5.66452" y2="-0.360702" transform="translate(285 12.3291) scale(-1 1) rotate(90)" stroke="#D1C2A6" stroke-width="0.721405"/>
<line y1="-0.360702" x2="16.9934" y2="-0.360702" transform="translate(290.676 1) scale(1 -1) rotate(-89.8778)" stroke="#D1C2A6" stroke-width="0.721405"/>
<line y1="-0.360702" x2="5.66452" y2="-0.360702" transform="translate(294.078 3.26562) scale(-1 1) rotate(90)" stroke="#D1C2A6" stroke-width="0.721405"/>
<line y1="-0.360702" x2="279.312" y2="-0.360702" transform="translate(11.6875 424.985)" stroke="#D1C2A6" stroke-width="0.721405"/>
<line y1="-0.360702" x2="16.4544" y2="-0.360702" transform="translate(0 413.089) scale(1 -1)" stroke="#D1C2A6" stroke-width="0.721405"/>
<line y1="-0.360702" x2="5.67395" y2="-0.360702" transform="translate(10.7812 407.991) scale(1 -1)" stroke="#D1C2A6" stroke-width="0.721405"/>
<line y1="-0.360702" x2="5.67395" y2="-0.360702" transform="translate(2.26953 416.488) scale(1 -1)" stroke="#D1C2A6" stroke-width="0.721405"/>
<line y1="-0.360702" x2="5.66452" y2="-0.360702" transform="translate(16.4551 413.655) scale(1 -1) rotate(90)" stroke="#D1C2A6" stroke-width="0.721405"/>
<line y1="-0.360702" x2="16.9934" y2="-0.360702" transform="translate(10.7793 424.984) scale(-1 1) rotate(-89.8778)" stroke="#D1C2A6" stroke-width="0.721405"/>
<line y1="-0.360702" x2="5.66452" y2="-0.360702" transform="translate(7.37695 422.718) scale(1 -1) rotate(90)" stroke="#D1C2A6" stroke-width="0.721405"/>
<line y1="-0.360702" x2="16.4544" y2="-0.360702" transform="translate(301.455 413.089) rotate(-180)" stroke="#D1C2A6" stroke-width="0.721405"/>
<line y1="-0.360702" x2="5.67395" y2="-0.360702" transform="translate(290.674 407.991) rotate(180)" stroke="#D1C2A6" stroke-width="0.721405"/>
<line y1="-0.360702" x2="5.67395" y2="-0.360702" transform="translate(299.186 416.488) rotate(180)" stroke="#D1C2A6" stroke-width="0.721405"/>
<line y1="-0.360702" x2="5.66452" y2="-0.360702" transform="translate(285 413.656) rotate(-90)" stroke="#D1C2A6" stroke-width="0.721405"/>
<line y1="-0.360702" x2="16.9934" y2="-0.360702" transform="translate(290.676 424.984) rotate(-89.8778)" stroke="#D1C2A6" stroke-width="0.721405"/>
<line y1="-0.360702" x2="5.66452" y2="-0.360702" transform="translate(294.078 422.719) rotate(-90)" stroke="#D1C2A6" stroke-width="0.721405"/>
<line y1="-0.360702" x2="400" y2="-0.360702" transform="translate(301 413) rotate(-90)" stroke="#D1C2A6" stroke-width="0.721405"/>
<line y1="-0.360702" x2="400" y2="-0.360702" transform="translate(1 413) rotate(-90)" stroke="#D1C2A6" stroke-width="0.721405"/>
</svg>
