<svg width="386" height="855" viewBox="0 0 386 855" fill="none" xmlns="http://www.w3.org/2000/svg">
<line y1="-0.360702" x2="362.996" y2="-0.360702" transform="translate(11 1)" stroke="#D1C2A6" stroke-width="0.721405"/>
<line y1="-0.360702" x2="16.4544" y2="-0.360702" transform="translate(0 12.8954)" stroke="#D1C2A6" stroke-width="0.721405"/>
<line y1="-0.360702" x2="5.67395" y2="-0.360702" transform="translate(10.7812 17.9937)" stroke="#D1C2A6" stroke-width="0.721405"/>
<line y1="-0.360702" x2="5.67395" y2="-0.360702" transform="translate(2.26953 9.4967)" stroke="#D1C2A6" stroke-width="0.721405"/>
<line y1="-0.360702" x2="5.66452" y2="-0.360702" transform="translate(16.4551 12.3296) rotate(90)" stroke="#D1C2A6" stroke-width="0.721405"/>
<line y1="-0.360702" x2="16.9934" y2="-0.360702" transform="translate(10.7793 1.00061) rotate(90.1222)" stroke="#D1C2A6" stroke-width="0.721405"/>
<line y1="-0.360702" x2="5.66452" y2="-0.360702" transform="translate(7.37695 3.26636) rotate(90)" stroke="#D1C2A6" stroke-width="0.721405"/>
<line y1="-0.360702" x2="16.4544" y2="-0.360702" transform="translate(385.455 12.895) scale(-1 1)" stroke="#D1C2A6" stroke-width="0.721405"/>
<line y1="-0.360702" x2="5.67395" y2="-0.360702" transform="translate(374.674 17.9933) scale(-1 1)" stroke="#D1C2A6" stroke-width="0.721405"/>
<line y1="-0.360702" x2="5.67395" y2="-0.360702" transform="translate(383.186 9.49634) scale(-1 1)" stroke="#D1C2A6" stroke-width="0.721405"/>
<line y1="-0.360702" x2="5.66452" y2="-0.360702" transform="translate(369 12.329) scale(-1 1) rotate(90)" stroke="#D1C2A6" stroke-width="0.721405"/>
<line y1="-0.360702" x2="16.9934" y2="-0.360702" transform="translate(374.676 1) scale(1 -1) rotate(-89.8778)" stroke="#D1C2A6" stroke-width="0.721405"/>
<line y1="-0.360702" x2="5.66452" y2="-0.360702" transform="translate(378.078 3.26575) scale(-1 1) rotate(90)" stroke="#D1C2A6" stroke-width="0.721405"/>
<line y1="-0.360702" x2="362.108" y2="-0.360702" transform="translate(11.8926 854.984)" stroke="#D1C2A6" stroke-width="0.721405"/>
<line y1="-0.360702" x2="16.4544" y2="-0.360702" transform="translate(0 843.098) scale(1 -1)" stroke="#D1C2A6" stroke-width="0.721405"/>
<line y1="-0.360702" x2="5.67395" y2="-0.360702" transform="translate(10.7812 838) scale(1 -1)" stroke="#D1C2A6" stroke-width="0.721405"/>
<line y1="-0.360702" x2="5.67395" y2="-0.360702" transform="translate(2.26953 846.497) scale(1 -1)" stroke="#D1C2A6" stroke-width="0.721405"/>
<line y1="-0.360702" x2="5.66452" y2="-0.360702" transform="translate(16.4551 843.664) scale(1 -1) rotate(90)" stroke="#D1C2A6" stroke-width="0.721405"/>
<line y1="-0.360702" x2="16.9934" y2="-0.360702" transform="translate(10.7793 854.993) scale(-1 1) rotate(-89.8778)" stroke="#D1C2A6" stroke-width="0.721405"/>
<line y1="-0.360702" x2="5.66452" y2="-0.360702" transform="translate(7.37695 852.728) scale(1 -1) rotate(90)" stroke="#D1C2A6" stroke-width="0.721405"/>
<line y1="-0.360702" x2="16.4544" y2="-0.360702" transform="translate(385.455 843.099) rotate(-180)" stroke="#D1C2A6" stroke-width="0.721405"/>
<line y1="-0.360702" x2="5.67395" y2="-0.360702" transform="translate(374.674 838) rotate(180)" stroke="#D1C2A6" stroke-width="0.721405"/>
<line y1="-0.360702" x2="5.67395" y2="-0.360702" transform="translate(383.186 846.497) rotate(180)" stroke="#D1C2A6" stroke-width="0.721405"/>
<line y1="-0.360702" x2="5.66452" y2="-0.360702" transform="translate(369 843.665) rotate(-90)" stroke="#D1C2A6" stroke-width="0.721405"/>
<line y1="-0.360702" x2="16.9934" y2="-0.360702" transform="translate(374.676 854.994) rotate(-89.8778)" stroke="#D1C2A6" stroke-width="0.721405"/>
<line y1="-0.360702" x2="5.66452" y2="-0.360702" transform="translate(378.078 852.728) rotate(-90)" stroke="#D1C2A6" stroke-width="0.721405"/>
<line y1="-0.360702" x2="830" y2="-0.360702" transform="translate(385 843) rotate(-90)" stroke="#D1C2A6" stroke-width="0.721405"/>
<line y1="-0.360702" x2="830" y2="-0.360702" transform="translate(1 843) rotate(-90)" stroke="#D1C2A6" stroke-width="0.721405"/>
</svg>
