<svg width="22" height="16" viewBox="0 0 22 16" fill="none" xmlns="http://www.w3.org/2000/svg">
<rect width="22" height="16" fill="black" fill-opacity="0"/>
<rect width="22" height="16" fill="black" fill-opacity="0"/>
<path d="M22 13.3333C22 13.8009 21.8643 14.2345 21.647 14.616L14.7007 7.07955L21.5717 1.25021C21.839 1.66152 22 2.14467 22 2.66678V13.3333ZM11 8.44794L20.5608 0.335997C20.1684 0.127725 19.7266 0 19.2501 0H2.74998C2.27281 0 1.83087 0.127725 1.44012 0.335997L11 8.44794ZM13.6655 7.95718L11.4524 9.83607C11.323 9.94541 11.1618 10 11 10C10.8382 10 10.677 9.94541 10.5475 9.83607L8.33397 7.95709L1.29979 15.5898C1.72142 15.8463 2.21555 16 2.74994 16H19.2501C19.7844 16 20.2787 15.8463 20.7002 15.5898L13.6655 7.95718ZM0.428383 1.25016C0.161142 1.66147 0 2.14463 0 2.66678V13.3333C0 13.801 0.135026 14.2345 0.353162 14.616L7.29865 7.07827L0.428383 1.25016Z" fill="white"/>
</svg>
