<svg width="20" height="20" viewBox="0 0 20 20" fill="none" xmlns="http://www.w3.org/2000/svg">
<rect width="20" height="20" fill="black" fill-opacity="0"/>
<path d="M11.8197 14.9355C10.6298 14.3086 9.29801 13.366 7.96621 12.0362C6.63349 10.7028 5.68979 9.36944 5.06371 8.1779L6.09528 5.40862L2.61795 0L1.47197 1.14762L1.47288 1.15036C1.46556 1.1586 1.45641 1.16317 1.44725 1.17324C-1.44335 4.06241 0.113621 9.97803 5.0692 14.9327C10.0248 19.8865 15.9405 21.4423 18.832 18.554C18.8403 18.5449 18.8467 18.5357 18.854 18.5275L20 17.3799L14.5923 13.9032L11.8197 14.9355Z" fill="white"/>
<path opacity="0.6" d="M18.397 10.41H19.9988C19.9988 4.67099 15.3288 0 9.58789 0V1.60154C14.4455 1.60154 18.397 5.55413 18.397 10.41Z" fill="white"/>
<path opacity="0.6" d="M15.1933 10.411H16.7951C16.7951 6.43646 13.5631 3.2041 9.58691 3.2041V4.80564C12.678 4.80564 15.1933 7.32051 15.1933 10.411Z" fill="white"/>
<path opacity="0.6" d="M11.9897 10.4108H13.5915C13.5915 8.20212 11.7947 6.40625 9.58789 6.40625V8.00807C10.9133 8.00807 11.9897 9.08633 11.9897 10.4108Z" fill="white"/>
</svg>
