<svg width="266" height="266" viewBox="0 0 266 266" fill="none" xmlns="http://www.w3.org/2000/svg">
<circle cx="133" cy="133" r="132.292" stroke="#484848" stroke-opacity="0.03" stroke-width="1.41592"/>
<circle cx="93.2291" cy="93.2291" r="92.5212" transform="translate(39.2441 39.231)" stroke="#484848" stroke-opacity="0.05" stroke-width="1.41592"/>
<path d="M128.325 64.2389C128.325 99.2265 99.7999 127.598 64.6022 127.598C29.4046 127.598 0.87974 99.2265 0.87974 64.2389C0.87974 29.2513 29.4046 0.87974 64.6022 0.87974C99.7999 0.87974 128.325 29.2513 128.325 64.2389Z" transform="translate(68.9727 68.9517)" stroke="#C1B39A" stroke-opacity="0.12" stroke-width="1.75948"/>
<ellipse cx="52.5222" cy="52.2267" rx="52.5222" ry="52.2267" transform="translate(80.8652 80.8398)" fill="#D1C2A6" fill-opacity="0.36"/>
<ellipse cx="39.0358" cy="38.8163" rx="39.0358" ry="38.8163" transform="translate(93.9453 93.9165)" fill="#D1C2A6"/>
<path d="M23.1438 1.08854V11H21.4022V6.9363C20.7792 7.3894 19.991 7.61594 19.0376 7.61594C18.1881 7.61594 17.4707 7.36108 16.8854 6.85134C16.3096 6.34161 16.0217 5.53926 16.0217 4.44427V1.08854H17.7633V3.9487C17.7633 5.30799 18.3438 5.98763 19.5049 5.98763C20.1468 5.98763 20.7792 5.77524 21.4022 5.35047V1.08854H23.1438ZM26.7401 11L30.9313 1.06022H32.4605L36.6516 11H34.7967L33.7631 8.4655H29.5295L28.4959 11H26.7401ZM31.6534 3.31154L30.195 6.83719H33.0976L31.6534 3.31154ZM46.7957 8.73452L47.4612 10.0372C47.1497 10.3676 46.7013 10.6366 46.116 10.8442C45.5402 11.0519 44.9314 11.1558 44.2895 11.1558C42.7697 11.1558 41.5379 10.6885 40.5939 9.75399C39.65 8.81948 39.178 7.5829 39.178 6.04427C39.178 4.56227 39.6264 3.33985 40.5231 2.37703C41.4199 1.4142 42.6612 0.932785 44.247 0.932785C45.5214 0.932785 46.5267 1.26789 47.2629 1.93809L46.4842 3.22658C45.814 2.78292 45.0683 2.5611 44.247 2.5611C43.3125 2.5611 42.5385 2.87732 41.9249 3.50977C41.3208 4.14221 41.0187 4.98705 41.0187 6.04427C41.0187 7.07317 41.3349 7.91329 41.9674 8.56461C42.6093 9.2065 43.4352 9.52744 44.4453 9.52744C45.3231 9.52744 46.1066 9.26313 46.7957 8.73452ZM50.1652 6.04427C50.1652 4.59059 50.6467 3.37761 51.6095 2.40534C52.5818 1.42364 53.8183 0.932785 55.3192 0.932785C56.8106 0.932785 58.0425 1.40476 59.0148 2.34871C59.9965 3.29266 60.4873 4.52451 60.4873 6.04427C60.4873 7.52627 59.9965 8.74868 59.0148 9.71151C58.0331 10.6743 56.8012 11.1558 55.3192 11.1558C53.8278 11.1558 52.5959 10.6838 51.6237 9.73983C50.6514 8.79588 50.1652 7.56403 50.1652 6.04427ZM52.0059 6.04427C52.0059 7.03541 52.3222 7.86609 52.9546 8.53629C53.5965 9.19706 54.3847 9.52744 55.3192 9.52744C56.3387 9.52744 57.1458 9.19706 57.7404 8.53629C58.3446 7.87553 58.6466 7.04485 58.6466 6.04427C58.6466 5.0248 58.3257 4.18941 57.6838 3.53808C57.0514 2.88676 56.2632 2.5611 55.3192 2.5611C54.3658 2.5611 53.5729 2.88676 52.9405 3.53808C52.3175 4.18941 52.0059 5.0248 52.0059 6.04427ZM64.6266 10.9858V1.11686C65.5517 1.06966 66.505 1.04606 67.4868 1.04606C68.6101 1.04606 69.4313 1.27261 69.9505 1.7257C70.4791 2.16936 70.7434 2.75933 70.7434 3.49561C70.7434 4.55283 70.2714 5.30327 69.3275 5.74692V5.77524C69.8466 5.9074 70.2667 6.16698 70.5876 6.554C70.9086 6.94102 71.069 7.45075 71.069 8.0832C71.069 9.0649 70.7292 9.8059 70.0496 10.3062C69.3794 10.8065 68.4921 11.0566 67.3876 11.0566C66.1888 11.0566 65.2685 11.033 64.6266 10.9858ZM67.6 6.73807H66.3682V9.35753C66.7646 9.40473 67.1469 9.42833 67.5151 9.42833C68.7233 9.42833 69.3275 8.95163 69.3275 7.99824C69.3275 7.5829 69.1764 7.2714 68.8744 7.06373C68.5723 6.84662 68.1475 6.73807 67.6 6.73807ZM67.4584 2.67437C67.0431 2.67437 66.6797 2.68853 66.3682 2.71685V5.22303H67.5434C67.9776 5.22303 68.3316 5.11448 68.6053 4.89737C68.8791 4.67082 69.016 4.34044 69.016 3.90622C69.016 3.50977 68.8744 3.2077 68.5912 3.00003C68.3174 2.78293 67.9398 2.67437 67.4584 2.67437Z" transform="translate(90.2012 200.77)" fill="white" fill-opacity="0.8"/>
</svg>
